PathFileType	4	(X/Y/Z)	C:/Users/opensim2020/Desktop/walking_exp_matlab/subject06_walking23_straight_02.trc	
DataRate	CameraRate	NumFrames	NumMarkers	Units	OrigDataRate	OrigDataStartFrame	OrigNumFrames	
100.00	100.00	7	45	mm	100.00	1348	114	
Frame#	Time	LFHD			RFHD			LBHD			RBHD			C7			T10			CLAV			STRN			RBAK			LSHO			LUPA			LELB			LFRM			LWRA			LWRB			LFIN			RSHO			RUPA			RELB			RFRM			RWRA			RWRB			RFIN			LASI			RASI			LPSI			RPSI			LTHI			LKNE			LTIB			LANK			LHEE			LTOE			RTHI			RKNE			RTIB			RANK			RHEE			RTOE			*39			*40			*41			*42			*43			*44			
		X1	Y1	Z1	X2	Y2	Z2	X3	Y3	Z3	X4	Y4	Z4	X5	Y5	Z5	X6	Y6	Z6	X7	Y7	Z7	X8	Y8	Z8	X9	Y9	Z9	X10	Y10	Z10	X11	Y11	Z11	X12	Y12	Z12	X13	Y13	Z13	X14	Y14	Z14	X15	Y15	Z15	X16	Y16	Z16	X17	Y17	Z17	X18	Y18	Z18	X19	Y19	Z19	X20	Y20	Z20	X21	Y21	Z21	X22	Y22	Z22	X23	Y23	Z23	X24	Y24	Z24	X25	Y25	Z25	X26	Y26	Z26	X27	Y27	Z27	X28	Y28	Z28	X29	Y29	Z29	X30	Y30	Z30	X31	Y31	Z31	X32	Y32	Z32	X33	Y33	Z33	X34	Y34	Z34	X35	Y35	Z35	X36	Y36	Z36	X37	Y37	Z37	X38	Y38	Z38	X39	Y39	Z39	X40	Y40	Z40	X41	Y41	Z41	X42	Y42	Z42	X43	Y43	Z43	X44	Y44	Z44	X45	Y45	Z45	

72	0.710	-879.59991	-198.14435	1622.71155	-1010.98706	-214.52150	1621.39233	-900.43536	-64.29742	1574.64282	-1028.68481	-82.37352	1577.86475	-954.68909	-66.31190	1417.03577	-973.05170	-33.30310	1087.09119	-958.66016	-179.52675	1342.43091	-952.96832	-221.58801	1170.99036	-1030.82458	8.26804	1246.80933	-795.74426	-125.03854	1371.31311	-718.57977	-160.24060	1175.53528	-701.64636	-188.13660	1067.46875	-693.58502	-306.07355	978.39380	-751.59503	-424.50406	955.97125	-714.77393	-396.18280	903.14001	-722.16406	-484.94232	889.17853	-1118.84314	-125.75424	1373.48218	-1203.21985	-43.40219	1190.88440	-1216.77319	-23.66132	1069.19238	-1235.38062	-6.25270	949.94763	-1205.38623	-25.67360	798.51300	-1246.61792	26.41936	815.72809	-1245.98950	15.08307	730.88995	-854.20581	-205.92290	932.33112	-1075.85132	-220.41391	938.95996	-900.28668	-48.18637	954.91339	-1066.84351	-67.41825	953.72913	-808.06268	-91.61246	623.30615	-833.67200	-54.22672	461.06964	-845.30292	90.91462	243.23126	-895.31372	171.02373	91.87410	-940.30969	215.43004	92.67908	-899.03088	41.72059	33.22037	-1146.95654	-240.75006	605.63171	-1116.15356	-297.00360	493.87692	-1109.60352	-365.84348	246.03102	-1068.27148	-448.02313	77.26718	-1016.93964	-430.17365	42.75887	-1082.42932	-604.20557	98.51710	-947.99225	-107.69094	1669.54126															 
73	0.720	-880.76343	-212.17500	1621.46155	-1012.08624	-228.67183	1620.03430	-901.69873	-78.38011	1573.11719	-1029.69104	-96.59566	1576.17920	-955.95148	-80.75240	1415.16443	-973.79797	-48.72415	1085.25769	-959.78833	-194.13138	1341.06641	-954.00409	-236.73749	1169.68677	-1032.02747	-6.73123	1244.85645	-796.89111	-139.36658	1369.86121	-720.00085	-174.78419	1174.01538	-703.36340	-203.04887	1066.04822	-694.76324	-321.97095	978.79999	-752.60358	-440.74149	958.47247	-716.06232	-413.22418	905.11188	-723.26276	-502.25595	892.78180	-1120.09558	-140.50606	1371.82275	-1204.39087	-58.10411	1189.23975	-1218.03088	-37.94666	1067.64417	-1236.73120	-19.31607	948.53662	-1207.26257	-37.51565	796.92206	-1248.49463	14.56420	814.74292	-1247.95850	4.24734	729.74127	-855.12256	-221.38600	930.49316	-1077.03198	-236.34193	937.79205	-901.43970	-63.95745	952.91321	-1067.82019	-83.11680	952.47498	-808.84174	-104.86981	622.23505	-833.91388	-65.80183	460.28757	-844.79785	84.58595	245.76534	-894.28076	168.50630	96.22143	-938.91779	212.95496	98.59428	-899.07336	41.04459	33.31301	-1147.59326	-258.92404	605.72260	-1116.11292	-314.74759	494.22556	-1109.29150	-380.90494	244.76646	-1067.01147	-460.26437	75.12379	-1016.14716	-442.42166	40.21516	-1080.32446	-616.51636	95.31961	-949.23779	-121.68213	1668.08960															 
74	0.730	-881.96729	-226.16501	1620.30481	-1013.24982	-242.84029	1618.84595	-903.07806	-92.37603	1571.87073	-1031.01038	-110.86073	1574.85852	-957.23254	-95.16231	1413.82690	-974.51654	-64.38245	1083.59790	-961.10822	-208.71426	1339.92444	-955.23138	-252.14005	1168.72559	-1033.20691	-21.89273	1243.10864	-798.20288	-153.84889	1368.62683	-721.35968	-189.24280	1172.80322	-704.83209	-217.66074	1064.88672	-696.12360	-337.17987	978.87756	-753.63678	-456.36517	960.42755	-716.89734	-429.72394	906.61816	-724.20764	-518.86285	895.70538	-1121.41077	-155.24059	1370.39783	-1205.99658	-72.90109	1187.86353	-1219.40833	-52.70769	1066.18958	-1238.37439	-33.22525	947.29443	-1209.32642	-49.63246	795.43317	-1250.48267	1.98537	813.87927	-1250.06116	-7.33231	728.71606	-856.32813	-237.33827	928.87939	-1078.46667	-252.48869	937.07452	-902.49707	-80.08877	951.31793	-1068.44019	-99.78808	951.22192	-809.79382	-118.85326	620.93921	-834.25360	-78.38358	459.42453	-844.60510	77.29731	248.57794	-893.17914	165.41118	101.22661	-937.49939	209.84128	105.15038	-898.95758	40.86661	33.07801	-1148.15479	-277.35168	606.25757	-1116.58057	-333.32733	495.13495	-1108.76270	-394.63522	243.04886	-1065.37061	-470.08459	71.60282	-1014.67810	-450.83777	37.13630	-1078.13391	-625.97748	89.96777	-950.55908	-135.70871	1666.84680															 
75	0.740	-883.17206	-240.10197	1619.31140	-1014.43848	-257.01898	1617.89954	-904.23657	-106.26305	1570.86462	-1032.46765	-125.15818	1573.77429	-958.73914	-109.45467	1412.59521	-975.39685	-80.46983	1082.11523	-962.51111	-223.55209	1339.11548	-956.56793	-267.72717	1168.03601	-1034.31287	-37.22175	1241.50867	-799.63202	-168.30028	1367.55115	-722.69788	-203.66216	1171.83496	-706.36261	-231.58484	1063.94604	-697.38684	-351.99451	979.02307	-754.63202	-471.38870	961.87915	-718.37146	-445.06989	907.79388	-725.11945	-534.70087	897.88062	-1122.84631	-169.88821	1369.29333	-1207.14734	-88.14095	1186.41772	-1220.89307	-67.88870	1064.92285	-1240.11682	-47.65079	946.20050	-1211.29895	-62.94226	794.00421	-1252.60291	-11.32425	813.10333	-1252.31287	-19.74772	727.80908	-857.68304	-253.48560	927.44049	-1079.95605	-269.07605	936.44647	-903.45215	-96.64193	950.13385	-1069.49402	-115.83289	950.72211	-810.88696	-133.13925	619.80573	-834.59485	-92.01135	458.40997	-844.57996	69.25300	251.83807	-892.20752	161.81129	106.80603	-936.44684	205.76517	112.47513	-898.90411	40.45897	32.89632	-1148.65820	-296.00168	607.11743	-1116.56055	-352.02209	496.38989	-1108.59937	-407.60110	240.75993	-1064.20251	-476.93683	67.34957	-1013.05090	-456.36664	33.54737	-1075.83240	-632.86768	82.71712	-951.93225	-149.78430	1665.74475															 
76	0.750	-884.43225	-254.13019	1618.39978	-1015.63000	-271.28641	1617.07422	-906.01044	-120.44987	1569.88257	-1033.91907	-139.33319	1572.97913	-960.29956	-123.88556	1411.46130	-976.66870	-96.61030	1080.82324	-964.03503	-238.20978	1338.42163	-957.92224	-283.62039	1167.65564	-1035.49561	-52.73202	1239.94800	-801.27814	-182.74133	1366.58191	-724.25800	-217.84334	1170.92334	-708.18500	-245.87166	1063.08691	-698.61462	-366.32693	978.89856	-755.60547	-485.87717	962.77985	-719.58423	-459.92029	908.51923	-725.93054	-549.43549	899.24170	-1124.40259	-184.52795	1368.48010	-1208.89648	-103.24535	1185.35632	-1222.40771	-83.30296	1063.81372	-1241.91663	-62.64263	945.27917	-1213.55188	-76.42297	792.77911	-1254.84351	-25.34404	812.48309	-1254.59314	-33.02915	727.04242	-859.06433	-269.78268	926.28247	-1081.33508	-286.23413	936.13843	-904.63232	-113.03433	949.52026	-1070.39197	-132.93391	950.13086	-811.86157	-148.13289	618.57019	-834.87103	-106.97186	457.16412	-844.75201	60.35380	255.49315	-891.58075	157.23865	113.38898	-935.77618	200.63635	120.76839	-898.84961	39.91710	32.82443	-1148.71692	-314.82440	608.03497	-1116.08167	-370.43088	497.71725	-1108.26721	-419.29846	238.50868	-1062.48035	-481.52499	63.31293	-1012.26923	-459.43643	31.46669	-1073.45142	-637.79633	73.77164	-953.34741	-163.92076	1664.91309															 
77	0.760	-885.55438	-268.08774	1617.73206	-1016.83783	-285.59225	1616.55188	-907.49103	-134.25139	1569.34729	-1035.44592	-153.71225	1572.41101	-961.91150	-138.27943	1410.07227	-978.13446	-113.41997	1079.61804	-965.63086	-253.09650	1338.08362	-959.30914	-299.80054	1167.56506	-1036.83154	-68.27238	1238.42468	-803.07556	-197.03699	1365.77893	-725.98492	-231.91489	1170.11792	-709.75568	-259.28403	1062.25183	-699.95752	-379.87842	978.52155	-756.52466	-499.86707	963.13635	-720.62085	-474.05264	908.57910	-726.67346	-563.67517	899.87311	-1126.06763	-199.26031	1367.80420	-1210.25818	-118.73082	1184.35632	-1223.95374	-98.99131	1062.86682	-1243.78345	-78.02855	944.50153	-1215.80518	-90.81277	791.80048	-1257.16675	-40.00091	811.97992	-1257.14636	-46.97049	726.45166	-860.48920	-286.21225	925.41132	-1082.46582	-303.36237	935.80310	-905.92969	-129.49605	949.05090	-1071.86060	-150.36115	950.04718	-812.83026	-163.79173	617.21680	-835.19861	-123.40434	455.58371	-845.40692	50.18413	259.55588	-891.15289	151.73172	120.67434	-935.51440	194.19168	130.06073	-899.02631	39.19691	32.82454	-1147.82776	-333.77750	609.05707	-1114.55066	-387.95416	498.86038	-1106.78784	-430.64606	236.81865	-1060.46106	-487.49289	61.90242	-1009.76740	-463.96707	35.63168	-1073.39880	-645.53583	58.99535	-954.74072	-178.06047	1664.31628															 
78	0.770	-886.61884	-282.03867	1617.89832	-1017.97845	-300.06696	1616.93970	-909.37476	-148.60233	1569.01099	-1037.18762	-168.18886	1572.44861	-964.15649	-152.30547	1409.52478	-979.44720	-129.93776	1078.79309	-967.26337	-268.02832	1338.50366	-960.66125	-315.84741	1167.96655	-1038.40845	-83.91795	1236.78088	-804.80164	-210.96754	1365.37756	-727.74274	-245.87756	1169.45862	-711.42316	-272.48923	1061.55383	-701.23541	-393.17163	977.96606	-757.40369	-513.26715	962.86621	-721.40063	-487.65146	908.24884	-727.42987	-577.14923	899.77216	-1127.92737	-214.08179	1367.60840	-1212.00073	-134.37265	1183.69031	-1225.79773	-115.03796	1062.15637	-1245.73889	-93.91912	943.87457	-1218.03284	-106.20832	791.08801	-1259.36060	-55.49997	811.54718	-1259.50452	-62.10838	726.02301	-861.75470	-302.76437	924.85535	-1083.30396	-320.65317	935.99854	-907.38794	-146.07684	948.64661	-1074.07507	-166.74931	951.08929	-813.88666	-180.35808	615.56628	-835.63324	-141.53685	453.62805	-845.84241	38.93814	264.10678	-890.96045	144.77104	128.77438	-935.13080	186.13589	140.59868	-899.33435	38.61128	32.80551	-1147.52197	-351.67218	610.50037	-1113.86646	-404.65298	500.39709	-1108.07373	-444.27109	237.93916	-1063.81604	-497.59021	64.41431	-1013.52087	-469.53342	39.32843	-1074.10339	-653.34930	48.29563	-956.15167	-192.14172	1664.26489															 
